<?xml version="1.0" encoding="UTF-8"?>
<svg version="1.1" viewBox="0 0 177 38" xmlns="http://www.w3.org/2000/svg">
<title>metlife_eng_logo_rgb</title>
<desc>Created with Sketch.</desc>
<g fill="none" fill-rule="evenodd">
<path d="m164.22 21.189c0-0.37588 0.081008-0.75735 0.2445-1.1462 0.1626-0.38795 0.40032-0.74498 0.71375-1.0705 0.31284-0.3255 0.70757-0.59504 1.1836-0.80802 0.47574-0.21268 1.0269-0.31932 1.6531-0.31932 0.62597 0 1.165 0.10664 1.6157 0.31932 0.45129 0.21298 0.82687 0.48251 1.1273 0.80802 0.30076 0.3255 0.52611 0.68253 0.67605 1.0705 0.15082 0.38884 0.22564 0.77031 0.22564 1.1462h-7.4398zm9.9575 5.3359c-0.40121 0.30047-1.0401 0.65719-1.9162 1.0708-0.87754 0.41299-2.0169 0.61978-3.4197 0.61978-1.4278 0-2.5489-0.35702-3.3626-1.0711-0.8142-0.71375-1.2343-1.5462-1.259-2.4983h12.55v-0.90198c0-1.4779-0.18735-2.837-0.56322-4.0769-0.37588-1.2402-0.9338-2.3044-1.672-3.1938-0.73909-0.88902-1.6476-1.5842-2.7242-2.0853-1.0773-0.50078-2.3298-0.75146-3.7576-0.75146-1.4275 0-2.7054 0.25716-3.8327 0.77002-1.127 0.51374-2.0791 1.1966-2.8556 2.0479-0.77679 0.85191-1.3715 1.8476-1.7845 2.9873-0.41358 1.14-0.62037 2.3236-0.62037 3.5505 0 1.4036 0.21887 2.6868 0.65778 3.8513 0.43803 1.165 1.0767 2.161 1.9165 2.9873 0.83865 0.82687 1.8596 1.4723 3.0621 1.9353 1.2022 0.46336 2.5551 0.69519 4.058 0.69519 1.127 0 2.1289-0.10693 3.0058-0.31961 0.87665-0.21298 1.6346-0.45688 2.2735-0.7326 0.63864-0.27513 1.1583-0.55733 1.5589-0.84543 0.40092-0.2875 0.70138-0.49429 0.90198-0.61978l-2.2167-3.4191zm-59.888 0.63864c-0.35143 0.25039-0.72701 0.46955-1.1273 0.65719-0.40092 0.18794-0.87695 0.2822-1.4275 0.2822-0.72701 0-1.2593-0.23183-1.5975-0.69549-0.33817-0.46307-0.50696-1.1209-0.50696-1.9728v-6.9511h4.5467v-4.246h-4.5467v-4.7223h-5.4107v4.7223h-2.7887v4.246h2.7887v6.6506c0 1.1029 0.11253 2.1041 0.33817 3.0064 0.22535 0.9014 0.60122 1.6717 1.1273 2.3106 0.52552 0.63864 1.2145 1.14 2.0664 1.5029 0.85132 0.36291 1.9032 0.54467 3.1561 0.54467 2.0037 0 3.8574-0.67634 5.5613-2.029l-2.1793-3.3063zm46.842-19.201c-0.80212-0.67634-1.6909-1.1518-2.668-1.4275-0.97681-0.27572-1.9415-0.41358-2.8933-0.41358-0.90169 0-1.7848 0.14434-2.6491 0.43214-0.86398 0.28839-1.6343 0.72671-2.3106 1.3153-0.67634 0.58885-1.221 1.3338-1.6343 2.2355-0.41358 0.9014-0.62037 1.9792-0.62037 3.2315v0.90169h-2.8556v4.246h2.8556v13.377h5.3733v-13.377h4.1709v-4.246h-4.1709v-0.9771c0-0.87636 0.22505-1.5524 0.67634-2.0284 0.45099-0.47574 1.0522-0.71405 1.8034-0.71405 0.47544 0 0.9394 0.075116 1.3907 0.22505 0.4504 0.15053 0.86398 0.3638 1.2399 0.63893l2.2921-3.4194zm-23.78 23.898h5.4104v-17.623h-5.4104v17.623zm-18.858 0h16.486v-4.6404h-10.812v-20.422h-5.6741v25.062zm-30.908-10.671c0-0.37588 0.081008-0.75735 0.2445-1.1462 0.1629-0.38795 0.40033-0.74498 0.71405-1.0705 0.31254-0.3255 0.70727-0.59504 1.1836-0.80802 0.47574-0.21268 1.0266-0.31932 1.6529-0.31932 0.62626 0 1.165 0.10664 1.616 0.31932 0.45099 0.21298 0.82657 0.48251 1.1273 0.80802 0.30047 0.3255 0.52611 0.68253 0.67605 1.0705 0.15082 0.38884 0.22564 0.77031 0.22564 1.1462h-7.44zm9.9575 5.3359c-0.40091 0.30047-1.0398 0.65719-1.9162 1.0708-0.87753 0.41299-2.0169 0.61978-3.4194 0.61978-1.4278 0-2.5492-0.35702-3.3626-1.0711-0.8145-0.71375-1.2343-1.5462-1.2593-2.4983h12.55v-0.90198c0-1.4779-0.18764-2.837-0.56352-4.0769-0.37588-1.2402-0.9338-2.3044-1.672-3.1938-0.73909-0.88902-1.6473-1.5842-2.7242-2.0853-1.0773-0.50078-2.3295-0.75146-3.7573-0.75146-1.4278 0-2.7054 0.25716-3.833 0.77002-1.127 0.51374-2.0791 1.1966-2.8553 2.0479-0.77709 0.85191-1.3718 1.8476-1.7848 2.9873-0.41329 1.14-0.62008 2.3236-0.62008 3.5505 0 1.4036 0.21887 2.6868 0.65749 3.8513 0.43803 1.165 1.077 2.161 1.9165 2.9873 0.83865 0.82687 1.8599 1.4723 3.0621 1.9353 1.2022 0.46336 2.5551 0.69519 4.058 0.69519 1.1273 0 2.1289-0.10693 3.0061-0.31961 0.87636-0.21298 1.6346-0.45688 2.2732-0.7326 0.63893-0.27513 1.1583-0.55733 1.5592-0.84543 0.40062-0.2875 0.70138-0.49429 0.90198-0.61978l-2.217-3.4191zm-43.55 5.3353h5.4104l0.63893-16.27 5.4861 9.6567h2.9304l5.1857-9.7695 0.71375 16.382h5.6735l-1.1644-25.062h-5.411l-6.3872 11.761-6.5381-11.761h-5.373l-1.165 25.062zm86.064-19.638c-1.6714 0-3.05-1.3792-3.05-3.0506 0-1.6714 1.3786-3.0503 3.05-3.0503 1.7132 0 3.0506 1.3374 3.0506 3.0503 0 1.6714-1.3792 3.0506-3.0506 3.0506z" fill="#000"/>
<path d="m20.635 12.316c4.256 5.6346 6.782 12.654 6.782 20.265 0 1.837-0.14935 3.6386-0.43214 5.3954h12.322c1.0717 0 1.9404-0.87076 1.9404-1.9448v-34.069c0-1.269-1.196-2.2081-2.4205-1.885-7.3584 1.9424-13.727 6.3271-18.192 12.238" fill="#A4CE4E"/>
<path d="m14.286 37.976c-0.28309-1.7568-0.43243-3.5584-0.43243-5.3954 0-7.6112 2.5263-14.631 6.7817-20.265-4.4643-5.9106-10.833-10.295-18.191-12.238-1.2248-0.32315-2.4205 0.61595-2.4205 1.885v34.069c0 1.074 0.8687 1.9448 1.9404 1.9448h12.322" fill="#0090DA"/>
<path d="m20.635 12.316c-4.2554 5.6346-6.7817 12.654-6.7817 20.265 0 1.837 0.14935 3.6386 0.43243 5.3954h12.699c0.28279-1.7568 0.43214-3.5584 0.43214-5.3954 0-7.6112-2.526-14.631-6.782-20.265" fill="#0061A0"/>
</g>
</svg>
